<?xml version="1.0" encoding="UTF-8" standalone="no"?>
<!-- Created with Inkscape (http://www.inkscape.org/) -->

<svg
   xmlns:dc="http://purl.org/dc/elements/1.1/"
   xmlns:cc="http://creativecommons.org/ns#"
   xmlns:rdf="http://www.w3.org/1999/02/22-rdf-syntax-ns#"
   xmlns:svg="http://www.w3.org/2000/svg"
   xmlns="http://www.w3.org/2000/svg"
   xmlns:xlink="http://www.w3.org/1999/xlink"
   xmlns:sodipodi="http://sodipodi.sourceforge.net/DTD/sodipodi-0.dtd"
   xmlns:inkscape="http://www.inkscape.org/namespaces/inkscape"
   width="422.59128"
   height="70.000008"
   id="svg2"
   version="1.1"
   inkscape:version="0.48.4 r9939"
   sodipodi:docname="title.svg"
   inkscape:export-filename="C:\Users\goodnj2\Documents\physindex\dev\static\search\title.png"
   inkscape:export-xdpi="167"
   inkscape:export-ydpi="167">
  <defs
     id="defs4">
    <linearGradient
       id="linearGradient3855">
      <stop
         style="stop-color:#000080;stop-opacity:1;"
         offset="0"
         id="stop3857" />
      <stop
         id="stop3869"
         offset="0.5"
         style="stop-color:#000080;stop-opacity:0.49803922;" />
      <stop
         style="stop-color:#000080;stop-opacity:0;"
         offset="1"
         id="stop3859" />
    </linearGradient>
    <linearGradient
       id="linearGradient3821">
      <stop
         style="stop-color:#000080;stop-opacity:1;"
         offset="0"
         id="stop3823" />
      <stop
         id="stop3887"
         offset="1"
         style="stop-color:#a2a2ff;stop-opacity:1;" />
    </linearGradient>
    <inkscape:perspective
       sodipodi:type="inkscape:persp3d"
       inkscape:vp_x="0 : 526.18109 : 1"
       inkscape:vp_y="0 : 1000 : 0"
       inkscape:vp_z="744.09448 : 526.18109 : 1"
       inkscape:persp3d-origin="372.04724 : 350.78739 : 1"
       id="perspective3063" />
    <inkscape:path-effect
       effect="skeletal"
       id="path-effect3059"
       is_visible="true"
       pattern="M 0,0 0,10 10,5 z"
       copytype="single_stretched"
       prop_scale="1"
       scale_y_rel="false"
       spacing="0"
       normal_offset="0"
       tang_offset="0"
       prop_units="false"
       vertical_pattern="false"
       fuse_tolerance="0" />
    <inkscape:path-effect
       effect="skeletal"
       id="path-effect3003"
       is_visible="true"
       pattern="m 48.165137,-16.062444 0,9.9999997 10,-4.9999997 z"
       copytype="single_stretched"
       prop_scale="1"
       scale_y_rel="false"
       spacing="0"
       normal_offset="0"
       tang_offset="0"
       prop_units="false"
       vertical_pattern="false"
       fuse_tolerance="0" />
    <inkscape:path-effect
       fuse_tolerance="0"
       vertical_pattern="false"
       prop_units="false"
       tang_offset="0"
       normal_offset="0"
       spacing="0"
       scale_y_rel="false"
       prop_scale="1"
       copytype="single_stretched"
       pattern="m 86.697247,70.642202 0,10 10,-5 z"
       is_visible="true"
       id="path-effect3001"
       effect="skeletal" />
    <inkscape:path-effect
       fuse_tolerance="0"
       vertical_pattern="false"
       prop_units="false"
       tang_offset="0"
       normal_offset="0"
       spacing="0"
       scale_y_rel="false"
       prop_scale="1"
       copytype="single_stretched"
       pattern="m -4.587156,-15.145013 0,9.9999999 10.0000001,-4.9999999 z"
       is_visible="true"
       id="path-effect2995"
       effect="skeletal" />
    <inkscape:path-effect
       effect="skeletal"
       id="path-effect2991"
       is_visible="true"
       pattern="m 49.541284,70.642202 0,10 10,-5 z"
       copytype="single_stretched"
       prop_scale="1"
       scale_y_rel="false"
       spacing="0"
       normal_offset="0"
       tang_offset="0"
       prop_units="false"
       vertical_pattern="false"
       fuse_tolerance="0" />
    <linearGradient
       inkscape:collect="always"
       xlink:href="#linearGradient3821"
       id="linearGradient3853"
       x1="281.36044"
       y1="394.95001"
       x2="281.36044"
       y2="511.36954"
       gradientUnits="userSpaceOnUse" />
    <linearGradient
       inkscape:collect="always"
       xlink:href="#linearGradient3855"
       id="linearGradient3861"
       x1="438.87222"
       y1="488.06036"
       x2="438.87222"
       y2="602.47223"
       gradientUnits="userSpaceOnUse" />
    <linearGradient
       inkscape:collect="always"
       xlink:href="#linearGradient3855"
       id="linearGradient3867"
       gradientUnits="userSpaceOnUse"
       x1="438.87222"
       y1="488.06036"
       x2="438.87222"
       y2="602.47223" />
    <linearGradient
       inkscape:collect="always"
       xlink:href="#linearGradient3821"
       id="linearGradient3883"
       gradientUnits="userSpaceOnUse"
       x1="281.36044"
       y1="394.95001"
       x2="281.36044"
       y2="511.36954" />
    <linearGradient
       inkscape:collect="always"
       xlink:href="#linearGradient3821"
       id="linearGradient3885"
       gradientUnits="userSpaceOnUse"
       x1="281.36044"
       y1="394.95001"
       x2="281.36044"
       y2="511.36954" />
    <linearGradient
       inkscape:collect="always"
       xlink:href="#linearGradient3821"
       id="linearGradient3893"
       gradientUnits="userSpaceOnUse"
       x1="281.36044"
       y1="394.95001"
       x2="281.36044"
       y2="511.36954" />
    <filter
       inkscape:collect="always"
       id="filter3925"
       color-interpolation-filters="sRGB">
      <feGaussianBlur
         inkscape:collect="always"
         stdDeviation="0.39120991"
         id="feGaussianBlur3927" />
    </filter>
    <filter
       inkscape:collect="always"
       id="filter3935"
       color-interpolation-filters="sRGB">
      <feGaussianBlur
         inkscape:collect="always"
         stdDeviation="0.39146051"
         id="feGaussianBlur3937" />
    </filter>
    <filter
       inkscape:collect="always"
       id="filter3971"
       x="-0.72397619"
       width="2.4479525"
       y="-0.057485092"
       height="1.1149702"
       color-interpolation-filters="sRGB">
      <feGaussianBlur
         inkscape:collect="always"
         stdDeviation="0.44568265"
         id="feGaussianBlur3973" />
    </filter>
    <filter
       inkscape:collect="always"
       id="filter3975"
       x="-0.72397619"
       width="2.4479525"
       y="-0.057485092"
       height="1.1149702"
       color-interpolation-filters="sRGB">
      <feGaussianBlur
         inkscape:collect="always"
         stdDeviation="0.44568265"
         id="feGaussianBlur3977" />
    </filter>
    <filter
       inkscape:collect="always"
       id="filter3888"
       x="-0.026024999"
       width="1.05205"
       y="-0.30844444"
       height="1.6168889"
       color-interpolation-filters="sRGB">
      <feGaussianBlur
         inkscape:collect="always"
         stdDeviation="0.43375"
         id="feGaussianBlur3890" />
    </filter>
    <linearGradient
       inkscape:collect="always"
       xlink:href="#linearGradient3821"
       id="linearGradient4172"
       gradientUnits="userSpaceOnUse"
       x1="281.36044"
       y1="394.95001"
       x2="281.36044"
       y2="511.36954" />
    <linearGradient
       inkscape:collect="always"
       xlink:href="#linearGradient3821"
       id="linearGradient4174"
       gradientUnits="userSpaceOnUse"
       x1="281.36044"
       y1="394.95001"
       x2="281.36044"
       y2="511.36954" />
    <linearGradient
       inkscape:collect="always"
       xlink:href="#linearGradient3821"
       id="linearGradient4176"
       gradientUnits="userSpaceOnUse"
       x1="281.36044"
       y1="394.95001"
       x2="281.36044"
       y2="511.36954" />
    <linearGradient
       inkscape:collect="always"
       xlink:href="#linearGradient3821"
       id="linearGradient4178"
       gradientUnits="userSpaceOnUse"
       x1="281.36044"
       y1="394.95001"
       x2="281.36044"
       y2="511.36954" />
  </defs>
  <sodipodi:namedview
     id="base"
     pagecolor="#ffffff"
     bordercolor="#666666"
     borderopacity="1.0"
     inkscape:pageopacity="0"
     inkscape:pageshadow="2"
     inkscape:zoom="2.8284273"
     inkscape:cx="167.45314"
     inkscape:cy="14.956904"
     inkscape:document-units="px"
     inkscape:current-layer="layer1"
     showgrid="true"
     inkscape:window-width="1600"
     inkscape:window-height="837"
     inkscape:window-x="-8"
     inkscape:window-y="-8"
     inkscape:window-maximized="1"
     showguides="true"
     inkscape:snap-global="false"
     fit-margin-top="0"
     fit-margin-left="0"
     fit-margin-right="0"
     fit-margin-bottom="0">
    <inkscape:grid
       type="xygrid"
       id="grid3112"
       empspacing="5"
       visible="true"
       enabled="true"
       snapvisiblegridlinesonly="true"
       originx="-193.87535px"
       originy="-341.55009px" />
  </sodipodi:namedview>
  <metadata
     id="metadata7">
    <rdf:RDF>
      <cc:Work
         rdf:about="">
        <dc:format>image/svg+xml</dc:format>
        <dc:type
           rdf:resource="http://purl.org/dc/dcmitype/StillImage" />
        <dc:title></dc:title>
      </cc:Work>
    </rdf:RDF>
  </metadata>
  <g
     inkscape:label="Layer 1"
     inkscape:groupmode="layer"
     id="layer1"
     transform="translate(-193.87535,-640.81208)">
    <rect
       style="fill:#000000;fill-opacity:0.63297873;fill-rule:nonzero;stroke:#000000;stroke-width:0.89999998;stroke-miterlimit:4;stroke-opacity:0;stroke-dasharray:none;filter:url(#filter3888)"
       id="rect3882"
       width="40"
       height="3.375"
       x="298.625"
       y="663.61218"
       transform="matrix(0.38867524,0,0,0.59525777,94.860873,297.52662)" />
    <rect
       transform="matrix(0.38862521,0,0,0.60114403,121.11165,293.64177)"
       y="663.61218"
       x="298.625"
       height="3.375"
       width="40"
       id="rect3892"
       style="fill:#000000;fill-opacity:0.63297873;fill-rule:nonzero;stroke:#000000;stroke-width:0.89999998;stroke-miterlimit:4;stroke-opacity:0;stroke-dasharray:none;filter:url(#filter3888)" />
    <g
       id="g3010"
       transform="matrix(5.0138496,0,0,5.0141325,-2672.4891,626.43915)"
       style="fill:#00b000;fill-opacity:1">
      <g
         style="font-size:15px;font-style:normal;font-weight:normal;text-align:start;text-anchor:start;fill:#00b000;font-family:Times New Roman"
         id="text3012">
        <path
           d="m 583.4212,3.507062 0,0.3588867 c -0.27344,0.068369 -0.46387,0.1452731 -0.57129,0.2307129 -0.10743,0.085458 -0.18067,0.2136322 -0.21972,0.3845215 -0.0391,0.1709072 -0.0586,0.4565515 -0.0586,0.8569335 l 0,6.3354494 c 0,0.283205 0.007,0.495607 0.022,0.637207 0.0146,0.141603 0.039,0.255128 0.0732,0.340576 0.0342,0.08545 0.0757,0.15503 0.12451,0.20874 0.0488,0.05371 0.1184,0.10254 0.20874,0.146485 0.0903,0.04394 0.2307,0.09033 0.42114,0.13916 l 0,0.358887 -3.07617,0 0,-0.358887 c 0.26855,-0.06836 0.45654,-0.144043 0.56397,-0.227051 0.10741,-0.08301 0.18187,-0.20996 0.22339,-0.380859 0.0415,-0.170898 0.0622,-0.458983 0.0623,-0.864258 l 0,-7.4926759 -3.88183,0 0,7.4926759 c -1e-5,0.32715 0.011,0.566407 0.033,0.717773 0.022,0.151368 0.0586,0.270997 0.10987,0.358887 0.0513,0.08789 0.12695,0.161133 0.22705,0.219727 0.10009,0.05859 0.26245,0.117188 0.48706,0.175781 l 0,0.358887 -3.0835,0 0,-0.358887 c 0.30274,-0.07813 0.50537,-0.164795 0.60791,-0.26001 0.10254,-0.09521 0.16968,-0.230712 0.20142,-0.406494 0.0317,-0.17578 0.0476,-0.444335 0.0476,-0.805664 l 0,-6.3354494 c -1e-5,-0.3369055 -0.0122,-0.5822666 -0.0366,-0.7360839 -0.0244,-0.1537996 -0.0647,-0.2734284 -0.12085,-0.3588868 -0.0562,-0.08544 -0.13062,-0.1537991 -0.22339,-0.2050781 -0.0928,-0.05126 -0.25147,-0.108633 -0.47608,-0.1721191 l 0,-0.3588867 z"
           style="font-variant:normal;font-stretch:normal;fill:#00b000;font-family:Cambria Math;-inkscape-font-specification:Cambria Math"
           id="path4169"
           inkscape:connector-curvature="0" />
      </g>
      <g
         style="font-size:15px;font-style:normal;font-weight:normal;text-align:start;text-anchor:start;fill:#00b000;font-family:Times New Roman"
         id="text3014" />
    </g>
    <rect
       style="fill:#1a1a1a;fill-opacity:0.70212761;fill-rule:nonzero;stroke:#000000;stroke-width:0.99088299;stroke-miterlimit:4;stroke-opacity:0;stroke-dasharray:none;filter:url(#filter3925)"
       id="rect3895"
       width="19.611225"
       height="3.0285883"
       x="96.900154"
       y="738.16046"
       transform="matrix(0.35680729,-0.1504593,0.15045081,0.35682742,95.505037,436.47782)" />
    <rect
       transform="matrix(-0.35656947,0.15102208,0.15101356,0.35658959,369.64543,432.73395)"
       y="454.82452"
       x="532.61707"
       height="2.6723928"
       width="19.611225"
       id="rect3941"
       style="fill:#1a1a1a;fill-opacity:0.70212761;fill-rule:nonzero;stroke:#000000;stroke-width:0.99088299;stroke-miterlimit:4;stroke-opacity:0;stroke-dasharray:none;filter:url(#filter3935)" />
    <g
       transform="matrix(-0.58662632,0,0,-0.58665943,414.69881,921.48153)"
       style="font-size:144px;font-style:normal;font-variant:normal;font-weight:normal;font-stretch:normal;line-height:125%;letter-spacing:0px;word-spacing:0px;fill:url(#linearGradient4178);fill-opacity:1;fill-rule:nonzero;stroke:none;font-family:Numans;-inkscape-font-specification:Numans"
       id="flowRoot3871">
      <path
         d="m 246.82031,430.93451 0,-4.28906 c 0,-3.18746 1.42969,-5.34371 4.28906,-6.46875 L 310.875,394.93451 c 0.93743,-0.28118 1.42962,-0.0468 1.47656,0.70313 l 0,9.42187 c -7e-5,1.17194 -0.49225,1.87506 -1.47656,2.10938 l -51.11719,21.65625 51.11719,21.58593 c 0.93743,0.28127 1.42962,0.98439 1.47656,2.10938 l 0,9.42187 c -7e-5,0.75001 -0.49225,0.98438 -1.47656,0.70313 l -59.76563,-25.24219 c -2.85937,-1.21872 -4.28906,-3.37497 -4.28906,-6.46875 z"
         style="fill:url(#linearGradient4176)"
         id="path4166"
         inkscape:connector-curvature="0" />
    </g>
    <rect
       transform="matrix(-0.59214921,3.9238269e-4,6.0605329e-4,0.38338067,431.44524,438.65804)"
       y="568.91443"
       x="309.37665"
       height="18.605747"
       width="1.4584078"
       id="rect3979"
       style="fill:#000000;fill-opacity:0.63297873;fill-rule:nonzero;stroke:#000000;stroke-width:0.89999998;stroke-miterlimit:4;stroke-opacity:0;stroke-dasharray:none;filter:url(#filter3971)" />
    <flowRoot
       xml:space="preserve"
       id="flowRoot3025"
       style="font-size:144px;font-style:normal;font-variant:normal;font-weight:normal;font-stretch:normal;line-height:125%;letter-spacing:0px;word-spacing:0px;fill:#000000;fill-opacity:1;stroke:none;font-family:Numans;-inkscape-font-specification:Numans"><flowRegion
         id="flowRegion3027"><rect
           id="rect3029"
           width="200.11122"
           height="156.2706"
           x="347.18942"
           y="486.67676"
           style="font-size:144px" /></flowRegion><flowPara
         id="flowPara3031">&lt;</flowPara></flowRoot>    <rect
       transform="matrix(0.35656947,0.15102208,-0.15101356,0.35658959,95.539247,436.51205)"
       y="463.79568"
       x="532.61707"
       height="2.6033273"
       width="19.611225"
       id="rect3929"
       style="fill:#1a1a1a;fill-opacity:0.70212761;fill-rule:nonzero;stroke:#000000;stroke-width:0.99088299;stroke-miterlimit:4;stroke-opacity:0;stroke-dasharray:none;filter:url(#filter3935)" />
    <rect
       style="fill:#1a1a1a;fill-opacity:0.70212761;fill-rule:nonzero;stroke:#000000;stroke-width:0.99088299;stroke-miterlimit:4;stroke-opacity:0;stroke-dasharray:none;filter:url(#filter3935)"
       id="rect3939"
       width="19.611225"
       height="1.9587988"
       x="532.61707"
       y="455.16983"
       transform="matrix(0.35656947,0.15102208,-0.15101356,0.35658959,94.034757,432.66549)" />
    <g
       transform="matrix(0.58662632,0,0,-0.58665943,49.084063,921.48153)"
       style="font-size:144px;font-style:normal;font-variant:normal;font-weight:normal;font-stretch:normal;line-height:125%;letter-spacing:0px;word-spacing:0px;fill:url(#linearGradient4174);fill-opacity:1;fill-rule:nonzero;stroke:none;font-family:Numans;-inkscape-font-specification:Numans"
       id="flowRoot3041">
      <path
         d="m 246.82031,430.93451 0,-4.28906 c 0,-3.18746 1.42969,-5.34371 4.28906,-6.46875 L 310.875,394.93451 c 0.93743,-0.28118 1.42962,-0.0468 1.47656,0.70313 l 0,9.42187 c -7e-5,1.17194 -0.49225,1.87506 -1.47656,2.10938 l -51.11719,21.65625 51.11719,21.58593 c 0.93743,0.28127 1.42962,0.98439 1.47656,2.10938 l 0,9.42187 c -7e-5,0.75001 -0.49225,0.98438 -1.47656,0.70313 l -59.76563,-25.24219 c -2.85937,-1.21872 -4.28906,-3.37497 -4.28906,-6.46875 z"
         style="fill:url(#linearGradient4172)"
         id="path4163"
         inkscape:connector-curvature="0" />
    </g>
    <rect
       transform="matrix(0.55770619,3.9299067e-4,-5.7079989e-4,0.38397528,39.801187,438.38236)"
       y="561.25159"
       x="326.20679"
       height="18.605747"
       width="1.4584078"
       id="rect3945"
       style="fill:#000000;fill-opacity:0.63297873;fill-rule:nonzero;stroke:#000000;stroke-width:0.89999998;stroke-miterlimit:4;stroke-opacity:0;stroke-dasharray:none;filter:url(#filter3975)" />
    <rect
       style="fill:#000000;fill-opacity:0.63297873;fill-rule:nonzero;stroke:#000000;stroke-width:0.89999998;stroke-miterlimit:4;stroke-opacity:0;stroke-dasharray:none;filter:url(#filter3971)"
       id="rect3943"
       width="1.4584078"
       height="18.605747"
       x="309.37665"
       y="568.91443"
       transform="matrix(0.5405224,3.9330046e-4,-5.532158e-4,0.38427915,48.092974,438.2316)" />
    <rect
       style="fill:#00b000;fill-opacity:1;stroke:#000000;stroke-width:0.34851664;stroke-miterlimit:4;stroke-opacity:0;stroke-dasharray:none"
       id="rect3049"
       width="6.8795462"
       height="13.520232"
       x="215.19543"
       y="652.73773"
       rx="0"
       ry="0" />
    <rect
       style="fill:#000000;fill-opacity:0.63297873;fill-rule:nonzero;stroke:#000000;stroke-width:0.89999998;stroke-miterlimit:4;stroke-opacity:0;stroke-dasharray:none;filter:url(#filter3975)"
       id="rect3981"
       width="1.4584078"
       height="18.605747"
       x="326.20679"
       y="561.25159"
       transform="matrix(-0.45502754,3.9493466e-4,4.6571348e-4,0.38587249,390.24839,437.20588)" />
    <rect
       ry="0"
       rx="0"
       y="653.62769"
       x="241.54993"
       height="13.520232"
       width="6.8795462"
       id="rect3051"
       style="fill:#00b000;fill-opacity:1;stroke:#000000;stroke-width:0.34851664;stroke-miterlimit:4;stroke-opacity:0;stroke-dasharray:none" />
    <text
       xml:space="preserve"
       style="font-size:144px;font-style:normal;font-variant:normal;font-weight:normal;font-stretch:normal;line-height:125%;letter-spacing:0px;word-spacing:0px;fill:#000000;fill-opacity:1;stroke:none;font-family:Numans;-inkscape-font-specification:Numans"
       x="545.5"
       y="81.672386"
       id="text3090"
       sodipodi:linespacing="125%"
       transform="translate(90.772289,535.85823)"><tspan
         sodipodi:role="line"
         id="tspan3092"
         x="545.5"
         y="81.672386" /></text>
    <text
       xml:space="preserve"
       style="font-size:144px;font-style:normal;font-variant:normal;font-weight:normal;font-stretch:normal;line-height:125%;letter-spacing:0px;word-spacing:0px;fill:#000000;fill-opacity:1;stroke:none;font-family:Numans;-inkscape-font-specification:Numans"
       x="108.49999"
       y="5.6723895"
       id="text3228"
       sodipodi:linespacing="125%"
       transform="translate(85.77229,535.85823)"><tspan
         sodipodi:role="line"
         id="tspan3230"
         x="108.49999"
         y="5.6723895" /></text>
    <g
       style="font-size:144px;font-style:normal;font-variant:normal;font-weight:normal;font-stretch:normal;line-height:125%;letter-spacing:0px;word-spacing:0px;fill:#000000;fill-opacity:1;stroke:none;font-family:Numans;-inkscape-font-specification:Numans"
       id="text3357"
       transform="matrix(1.2499297,0,0,1.2500002,-48.455205,-177.70321)">
      <path
         d="m 285.68613,669.14026 c -3e-5,4.08336 -1.39456,7.21421 -4.1836,9.39258 -2.78908,2.1784 -6.71747,3.26759 -11.78515,3.26758 l -4.59375,0 0,15.55859 -5.03125,0 0,-39.97656 10.58203,0 c 10.00778,4e-5 15.01169,3.9193 15.01172,11.75781 z m -20.5625,8.33984 4.01953,0 c 3.97394,2e-5 6.85414,-0.64256 8.64062,-1.92773 1.78644,-1.28513 2.67966,-3.34959 2.67969,-6.19336 -3e-5,-2.57028 -0.82945,-4.49346 -2.48828,-5.76953 -1.65888,-1.27601 -4.24742,-1.91403 -7.76563,-1.91406 l -5.08593,0 z"
         style="fill:#00b000;fill-opacity:1"
         id="path4144"
         inkscape:connector-curvature="0" />
      <path
         d="m 313.76816,697.35901 0,-19.19531 c -3e-5,-2.44269 -0.54234,-4.26105 -1.62696,-5.45508 -1.08465,-1.19399 -2.78452,-1.79099 -5.0996,-1.79102 -3.04429,3e-5 -5.2728,0.84768 -6.68555,2.54297 -1.41277,1.69534 -2.11915,4.49351 -2.11914,8.39453 l 0,15.50391 -4.92188,0 0,-42.54688 4.92188,0 0,12.46875 c -1e-5,1.64066 -0.0912,3.0443 -0.27344,4.21094 l 0.32813,0 c 0.89321,-1.4583 2.16014,-2.59763 3.80078,-3.41797 1.64061,-0.82028 3.49087,-1.23044 5.55078,-1.23047 3.64581,3e-5 6.3893,0.87048 8.23047,2.61133 1.84111,1.74091 2.76169,4.52542 2.76172,8.35352 l 0,19.55078 z"
         style="fill:#00b000;fill-opacity:1"
         id="path4146"
         inkscape:connector-curvature="0" />
      <path
         d="m 323.28378,667.33557 5.27735,0 6.48047,17.08985 c 1.36717,3.71875 2.20571,6.44401 2.51562,8.17578 l 0.21875,0 c 0.16405,-0.67448 0.53775,-1.93685 1.12109,-3.78711 0.58332,-1.85025 1.07551,-3.33137 1.47657,-4.44336 l 6.09765,-17.03516 5.30469,0 -12.93359,34.17969 c -1.25783,3.3177 -2.75262,5.6966 -4.48438,7.13672 -1.73178,1.44009 -3.8737,2.16014 -6.42578,2.16015 -1.36719,-10e-6 -2.72526,-0.15496 -4.07422,-0.46484 l 0,-3.91016 c 0.91146,0.21874 2.00521,0.32812 3.28125,0.32813 1.5677,-10e-6 2.89843,-0.43295 3.99219,-1.29883 1.09374,-0.86589 1.98697,-2.20118 2.67969,-4.00586 l 1.55859,-3.99219 z"
         style="fill:#00b000;fill-opacity:1"
         id="path4148"
         inkscape:connector-curvature="0" />
      <path
         d="m 376.08456,689.07385 c -2e-5,2.8073 -1.0482,4.98113 -3.14453,6.52149 -2.09637,1.54036 -5.04038,2.31054 -8.83203,2.31054 -3.95574,0 -7.10026,-0.6289 -9.43359,-1.88671 l 0,-4.48438 c 3.29947,1.60417 6.48046,2.40625 9.54297,2.40625 2.47915,0 4.28383,-0.40104 5.41406,-1.20312 1.13019,-0.80208 1.69529,-1.8776 1.69531,-3.22657 -2e-5,-1.18488 -0.54234,-2.18749 -1.62695,-3.00781 -1.08465,-0.8203 -3.01239,-1.7591 -5.7832,-2.81641 -2.82553,-1.09373 -4.81251,-2.02798 -5.96094,-2.80273 -1.14844,-0.77472 -1.99154,-1.64516 -2.5293,-2.61133 -0.53776,-0.96612 -0.80664,-2.1419 -0.80664,-3.52734 0,-2.46091 1.0026,-4.40232 3.00781,-5.82422 2.0052,-1.42185 4.7578,-2.13278 8.25782,-2.13281 3.40883,3e-5 6.59893,0.67451 9.57031,2.02343 l -1.66797,3.91016 c -3.04429,-1.27602 -5.78778,-1.91404 -8.23047,-1.91406 -2.04168,2e-5 -3.59116,0.32359 -4.64844,0.9707 -1.0573,0.64716 -1.58594,1.53583 -1.58593,2.66602 -1e-5,1.09377 0.45572,2.00067 1.36718,2.7207 0.91145,0.72007 3.03515,1.71812 6.3711,2.99414 2.49737,0.9297 4.34308,1.79559 5.53711,2.59766 1.19398,0.80209 2.07354,1.70444 2.63867,2.70703 0.56508,1.00261 0.84763,2.20574 0.84765,3.60937 z"
         style="fill:#00b000;fill-opacity:1"
         id="path4150"
         inkscape:connector-curvature="0" />
      <path
         d="m 398.25253,697.35901 -14.4375,0 0,-2.89844 4.70313,-1.0664 0,-31.99219 -4.70313,-1.1211 0,-2.89843 14.4375,0 0,2.89843 -4.70312,1.1211 0,31.99219 4.70312,1.0664 z"
         style="fill:#000080;fill-opacity:1"
         id="path4152"
         inkscape:connector-curvature="0" />
      <path
         d="m 427.81503,697.35901 0,-19.19531 c -2e-5,-2.44269 -0.54234,-4.26105 -1.62695,-5.45508 -1.08466,-1.19399 -2.78453,-1.79099 -5.09961,-1.79102 -3.08074,3e-5 -5.31837,0.85224 -6.71289,2.55664 -1.39454,1.70445 -2.09181,4.47984 -2.0918,8.32618 l 0,15.55859 -4.92187,0 0,-30.02344 3.96484,0 0.73828,4.10156 0.27344,0 c 0.92968,-1.47653 2.23306,-2.62041 3.91016,-3.43164 1.67706,-0.81116 3.52732,-1.21676 5.55078,-1.21679 3.68227,3e-5 6.41664,0.89326 8.20312,2.67968 1.78643,1.78649 2.67966,4.56643 2.67969,8.33985 l 0,19.55078 z"
         style="fill:#000080;fill-opacity:1"
         id="path4154"
         inkscape:connector-curvature="0" />
      <path
         d="m 452.6705,697.90588 c -3.90105,0 -6.92709,-1.34895 -9.07812,-4.04687 -2.15105,-2.69791 -3.22657,-6.51692 -3.22657,-11.45703 0,-4.90363 1.08008,-8.73175 3.24024,-11.48438 2.16015,-2.75257 5.19986,-4.12887 9.11914,-4.1289 4.02863,3e-5 7.12758,1.47659 9.29687,4.42968 l 0.35547,0 c -0.0547,-0.36455 -0.12763,-1.09828 -0.21875,-2.20117 -0.0912,-1.10283 -0.13674,-1.84567 -0.13672,-2.22851 l 0,-11.97657 4.92188,0 0,42.54688 -3.96484,0 -0.73829,-4.01953 -0.21875,0 c -2.09637,3.04427 -5.21356,4.5664 -9.35156,4.5664 z m 0.79297,-4.07421 c 2.98956,0 5.17251,-0.81576 6.54883,-2.44727 1.37628,-1.6315 2.06443,-4.30663 2.06445,-8.02539 l 0,-0.90234 c -2e-5,-4.17447 -0.69729,-7.15037 -2.0918,-8.92774 -1.39455,-1.77732 -3.5866,-2.66599 -6.57617,-2.66601 -2.53386,2e-5 -4.4935,1.00718 -5.8789,3.02148 -1.38543,2.01434 -2.07814,4.88999 -2.07813,8.62695 -1e-5,3.71876 0.68814,6.53517 2.06445,8.44922 1.3763,1.91407 3.35872,2.8711 5.94727,2.8711 z"
         style="fill:#000080;fill-opacity:1"
         id="path4156"
         inkscape:connector-curvature="0" />
      <path
         d="m 489.25644,697.90588 c -4.50262,0 -8.03452,-1.36263 -10.5957,-4.08789 -2.56121,-2.72525 -3.8418,-6.4759 -3.8418,-11.25195 0,-4.81248 1.19401,-8.64516 3.58203,-11.49805 2.38801,-2.85283 5.61457,-4.27926 9.67969,-4.27929 3.77342,3e-5 6.78122,1.21682 9.02344,3.65039 2.24216,2.43362 3.36325,5.72853 3.36328,9.88476 l 0,2.98047 -20.5625,0 c 0.0911,3.40887 0.95702,5.99741 2.59765,7.76563 1.64062,1.76823 3.96483,2.65234 6.97266,2.65234 1.60415,0 3.12628,-0.14127 4.56641,-0.42383 1.44008,-0.28255 3.12627,-0.83398 5.05859,-1.65429 l 0,4.32031 c -1.65888,0.71094 -3.21747,1.21224 -4.67578,1.5039 -1.45836,0.29167 -3.18101,0.4375 -5.16797,0.4375 z m -1.23047,-27.09765 c -2.35158,2e-5 -4.21095,0.75653 -5.57812,2.26953 -1.3672,1.51304 -2.1784,3.61851 -2.4336,6.31641 l 15.28516,0 c -0.0365,-2.80728 -0.68362,-4.94009 -1.94141,-6.39844 -1.25783,-1.45831 -3.03517,-2.18748 -5.33203,-2.1875 z"
         style="fill:#000080;fill-opacity:1"
         id="path4158"
         inkscape:connector-curvature="0" />
      <path
         d="m 515.20566,682.01917 -10.36328,-14.6836 5.60547,0 7.73828,11.32031 7.65625,-11.32031 5.55078,0 -10.36328,14.6836 10.9375,15.33984 -5.60547,0 -8.17578,-11.97656 -8.28516,11.97656 -5.55078,0 z"
         style="fill:#000080;fill-opacity:1"
         id="path4160"
         inkscape:connector-curvature="0" />
    </g>
  </g>
</svg>
